<svg width="48" height="46" viewBox="0 0 48 46" fill="none" xmlns="http://www.w3.org/2000/svg">
<path d="M21.6977 20.0353C17.8901 20.9872 12.1787 25.1122 9.00564 31.1409C6.14992 37.1697 6.46723 43.5157 9.64026 45.1022C12.8133 46.6887 18.842 41.9292 22.6496 42.5638C26.4573 43.1984 31.2168 47.006 35.6591 45.4195C40.4186 43.833 37.2456 31.7755 34.0725 26.6987C31.2168 21.6218 27.7265 18.7661 21.6977 20.0353Z" fill="white"/>
<path d="M45.8129 15.5933C43.9091 14.0067 40.736 14.9587 38.5149 17.4971C36.2938 20.3528 35.9765 23.8431 37.8803 25.7469C39.7841 27.3334 42.9572 26.6988 45.1783 23.8431C47.3994 20.9874 47.7167 17.1798 45.8129 15.5933Z" fill="white"/>
<path d="M17.8903 17.4968C21.0633 16.5449 22.6498 12.4199 21.3806 7.66041C20.1114 3.21818 16.621 0.0451557 13.448 0.997063C10.275 1.94897 8.68847 6.0739 9.95768 10.8334C11.2269 14.9584 14.7172 18.1314 17.8903 17.4968Z" fill="white"/>
<path d="M8.68843 17.1797C6.46731 14.324 3.2943 13.3721 1.39049 14.9586C-0.513324 16.5451 -0.513328 20.0355 1.70779 22.8912C3.9289 25.7469 7.10191 26.6988 9.00573 25.1123C10.9095 23.5258 10.5922 20.0355 8.68843 17.1797Z" fill="white"/>
<path d="M36.9284 10.8334C37.8803 6.0739 36.2938 1.63167 33.1207 0.997063C29.9477 0.0451556 26.4574 3.21818 25.5055 7.66041C24.5536 12.1026 26.1401 16.5449 28.9958 17.4968C32.4861 18.4487 35.9765 15.593 36.9284 10.8334Z" fill="white"/>
</svg>
