<svg width="10" height="17" viewBox="0 0 10 17" fill="none" xmlns="http://www.w3.org/2000/svg">
<path fill-rule="evenodd" clip-rule="evenodd" d="M0.914808 0.702963C1.32594 0.369462 1.91172 0.455976 2.22318 0.896197C3.29499 2.41109 4.44293 3.49725 5.67449 4.53367C6.0279 4.83108 6.39563 5.13 6.7728 5.43658C7.68619 6.17905 8.6549 6.96648 9.60948 7.88639C9.89339 8.15998 10.0154 8.53196 9.99846 8.89479C9.98394 9.20623 9.87128 9.46614 9.77607 9.64217C9.58397 9.99731 9.27461 10.3479 8.9588 10.6626C8.30632 11.3129 7.35523 12.0717 6.37244 12.8068C5.38068 13.5486 4.31784 14.2946 3.42432 14.9195C3.37215 14.956 3.32068 14.992 3.26995 15.0275C2.43212 15.6133 1.79345 16.0598 1.49433 16.3001C1.0817 16.6314 0.496313 16.5419 0.186839 16.1001C-0.122635 15.6582 -0.0390089 15.0314 0.373623 14.7001C0.724283 14.4185 1.40997 13.9391 2.20042 13.3866C2.26722 13.3399 2.33477 13.2927 2.40292 13.245C3.29767 12.6193 4.3379 11.8889 5.30283 11.1672C6.27672 10.4388 7.13593 9.74709 7.68621 9.19867C7.77736 9.10783 7.85369 9.02705 7.91693 8.95629C7.17712 8.2767 6.45012 7.68596 5.71047 7.08493C5.31856 6.76646 4.9231 6.44511 4.52029 6.10613C3.22842 5.01896 1.94249 3.81151 0.734342 2.10391C0.422878 1.66369 0.503675 1.03646 0.914808 0.702963ZM8.16711 8.62481C8.16724 8.62477 8.16631 8.62708 8.16393 8.63182C8.16579 8.62722 8.16698 8.62485 8.16711 8.62481Z" fill="#B7B7B7"/>
</svg>
