<svg width="16" height="10" viewBox="0 0 16 10" fill="none" xmlns="http://www.w3.org/2000/svg">
<path fill-rule="evenodd" clip-rule="evenodd" d="M15.7972 0.914808C16.1307 1.32594 16.0441 1.91172 15.6039 2.22318C14.089 3.29499 13.0029 4.44293 11.9665 5.67449C11.669 6.0279 11.3701 6.39563 11.0635 6.7728C10.3211 7.68619 9.53364 8.6549 8.61373 9.60948C8.34014 9.89339 7.96816 10.0154 7.60533 9.99846C7.29389 9.98394 7.03398 9.87128 6.85796 9.77607C6.50281 9.58397 6.15223 9.27461 5.83748 8.9588C5.18719 8.30632 4.42839 7.35523 3.69333 6.37244C2.95156 5.38068 2.2055 4.31784 1.58061 3.42432C1.54413 3.37215 1.50814 3.32068 1.47267 3.26995C0.886847 2.43212 0.440281 1.79345 0.200068 1.49433C-0.131304 1.0817 -0.0417595 0.496313 0.400067 0.186839C0.841895 -0.122635 1.4687 -0.0390089 1.80007 0.373623C2.08167 0.724283 2.56098 1.40997 3.11352 2.20042C3.16022 2.26722 3.20743 2.33477 3.2551 2.40292C3.88084 3.29767 4.61123 4.3379 5.33294 5.30283C6.06134 6.27672 6.75303 7.13593 7.30145 7.68621C7.3923 7.77736 7.47308 7.85369 7.54384 7.91693C8.22342 7.17712 8.81417 6.45012 9.4152 5.71047C9.73366 5.31856 10.055 4.9231 10.394 4.52029C11.4812 3.22842 12.6886 1.94249 14.3962 0.734342C14.8364 0.422878 15.4637 0.503675 15.7972 0.914808ZM7.87531 8.16711C7.87535 8.16724 7.87305 8.16631 7.8683 8.16393C7.8729 8.16579 7.87527 8.16698 7.87531 8.16711Z" fill="#B7B7B7"/>
</svg>
