<svg width="26" height="26" viewBox="0 0 26 26" fill="none" xmlns="http://www.w3.org/2000/svg">
<path fill-rule="evenodd" clip-rule="evenodd" d="M7.63492 1.85714C6.10256 1.85714 4.63296 2.46587 3.54941 3.54941C2.46587 4.63296 1.85714 6.10256 1.85714 7.63492V18.3651C1.85714 19.8974 2.46587 21.367 3.54941 22.4506C4.63296 23.5341 6.10256 24.1429 7.63492 24.1429H10.7302V15.2697H8.97621C8.46337 15.2697 8.04764 14.854 8.04764 14.3412C8.04764 13.8283 8.46337 13.4126 8.97621 13.4126H10.7302V12.9997C10.7302 11.5105 10.8872 9.88734 11.8466 8.64818C12.8487 7.35399 14.5313 6.70605 17.0238 6.70605C17.5366 6.70605 17.9524 7.12179 17.9524 7.63463C17.9524 8.14746 17.5366 8.5632 17.0238 8.5632C14.8219 8.5632 13.822 9.13045 13.3151 9.78513C12.7656 10.4948 12.5873 11.5542 12.5873 12.9997V13.4126H17.0238C17.5367 13.4126 17.9524 13.8283 17.9524 14.3412C17.9524 14.854 17.5367 15.2697 17.0238 15.2697H12.5873V24.1429H18.3651C19.8974 24.1429 21.367 23.5341 22.4506 22.4506C23.5341 21.367 24.1429 19.8974 24.1429 18.3651V7.63492C24.1429 6.10256 23.5341 4.63296 22.4506 3.54941C21.367 2.46587 19.8974 1.85714 18.3651 1.85714H7.63492ZM2.23622 2.23622C3.66804 0.804391 5.61001 0 7.63492 0H18.3651C20.39 0 22.332 0.804391 23.7638 2.23622C25.1956 3.66804 26 5.61001 26 7.63492V18.3651C26 20.39 25.1956 22.332 23.7638 23.7638C22.332 25.1956 20.39 26 18.3651 26H7.63492C5.61001 26 3.66804 25.1956 2.23622 23.7638C0.804391 22.332 0 20.39 0 18.3651V7.63492C0 5.61001 0.804391 3.66804 2.23622 2.23622Z" fill="white"/>
</svg>
