<svg width="196" height="50" viewBox="0 0 196 50" fill="none" xmlns="http://www.w3.org/2000/svg">
<path d="M66.44 18.176C67.0587 18.3787 67.5493 18.72 67.912 19.2C68.2747 19.6693 68.456 20.256 68.456 20.96C68.456 21.9307 68.0827 22.6827 67.336 23.216C66.5893 23.7387 65.5013 24 64.072 24H58.504V12.8H63.752C65.0747 12.8 66.0933 13.0613 66.808 13.584C67.5227 14.096 67.88 14.8053 67.88 15.712C67.88 16.2667 67.752 16.7573 67.496 17.184C67.24 17.6107 66.888 17.9413 66.44 18.176ZM60.584 14.432V17.52H63.528C64.2533 17.52 64.808 17.392 65.192 17.136C65.5867 16.8693 65.784 16.4853 65.784 15.984C65.784 15.472 65.5867 15.088 65.192 14.832C64.808 14.5653 64.2533 14.432 63.528 14.432H60.584ZM63.944 22.368C65.5547 22.368 66.36 21.8293 66.36 20.752C66.36 19.6747 65.5547 19.136 63.944 19.136H60.584V22.368H63.944ZM79.1079 24.16C77.9665 24.16 76.9372 23.9147 76.0199 23.424C75.1025 22.9227 74.3825 22.2347 73.8599 21.36C73.3372 20.4747 73.0759 19.488 73.0759 18.4C73.0759 17.312 73.3372 16.3307 73.8599 15.456C74.3825 14.5707 75.1025 13.8827 76.0199 13.392C76.9372 12.8907 77.9665 12.64 79.1079 12.64C80.2492 12.64 81.2785 12.8907 82.1959 13.392C83.1132 13.8827 83.8332 14.5653 84.3559 15.44C84.8785 16.3147 85.1399 17.3013 85.1399 18.4C85.1399 19.4987 84.8785 20.4853 84.3559 21.36C83.8332 22.2347 83.1132 22.9227 82.1959 23.424C81.2785 23.9147 80.2492 24.16 79.1079 24.16ZM79.1079 22.336C79.8545 22.336 80.5265 22.1707 81.1239 21.84C81.7212 21.4987 82.1905 21.0293 82.5319 20.432C82.8732 19.824 83.0439 19.1467 83.0439 18.4C83.0439 17.6533 82.8732 16.9813 82.5319 16.384C82.1905 15.776 81.7212 15.3067 81.1239 14.976C80.5265 14.6347 79.8545 14.464 79.1079 14.464C78.3612 14.464 77.6892 14.6347 77.0919 14.976C76.4945 15.3067 76.0252 15.776 75.6839 16.384C75.3425 16.9813 75.1719 17.6533 75.1719 18.4C75.1719 19.1467 75.3425 19.824 75.6839 20.432C76.0252 21.0293 76.4945 21.4987 77.0919 21.84C77.6892 22.1707 78.3612 22.336 79.1079 22.336ZM94.0166 24.16C93.1526 24.16 92.3153 24.0373 91.5046 23.792C90.7046 23.5467 90.07 23.2213 89.6006 22.816L90.3206 21.2C90.7793 21.5627 91.3393 21.8613 92.0006 22.096C92.6726 22.32 93.3446 22.432 94.0166 22.432C94.8486 22.432 95.4673 22.2987 95.8726 22.032C96.2886 21.7653 96.4966 21.4133 96.4966 20.976C96.4966 20.656 96.3793 20.3947 96.1446 20.192C95.9206 19.9787 95.6326 19.8133 95.2806 19.696C94.9286 19.5787 94.4486 19.4453 93.8406 19.296C92.9873 19.0933 92.294 18.8907 91.7606 18.688C91.238 18.4853 90.7846 18.1707 90.4006 17.744C90.0273 17.3067 89.8406 16.72 89.8406 15.984C89.8406 15.3653 90.006 14.8053 90.3366 14.304C90.678 13.792 91.1846 13.3867 91.8566 13.088C92.5393 12.7893 93.3713 12.64 94.3526 12.64C95.0353 12.64 95.7073 12.7253 96.3686 12.896C97.03 13.0667 97.6006 13.312 98.0806 13.632L97.4246 15.248C96.934 14.96 96.422 14.7413 95.8886 14.592C95.3553 14.4427 94.838 14.368 94.3366 14.368C93.5153 14.368 92.902 14.5067 92.4966 14.784C92.102 15.0613 91.9046 15.4293 91.9046 15.888C91.9046 16.208 92.0166 16.4693 92.2406 16.672C92.4753 16.8747 92.7686 17.0347 93.1206 17.152C93.4726 17.2693 93.9526 17.4027 94.5606 17.552C95.3926 17.744 96.0753 17.9467 96.6086 18.16C97.142 18.3627 97.5953 18.6773 97.9686 19.104C98.3526 19.5307 98.5446 20.1067 98.5446 20.832C98.5446 21.4507 98.374 22.0107 98.0326 22.512C97.702 23.0133 97.1953 23.4133 96.5126 23.712C95.83 24.0107 94.998 24.16 94.0166 24.16ZM107.279 24.16C106.415 24.16 105.578 24.0373 104.767 23.792C103.967 23.5467 103.332 23.2213 102.863 22.816L103.583 21.2C104.042 21.5627 104.602 21.8613 105.263 22.096C105.935 22.32 106.607 22.432 107.279 22.432C108.111 22.432 108.73 22.2987 109.135 22.032C109.551 21.7653 109.759 21.4133 109.759 20.976C109.759 20.656 109.642 20.3947 109.407 20.192C109.183 19.9787 108.895 19.8133 108.543 19.696C108.191 19.5787 107.711 19.4453 107.103 19.296C106.25 19.0933 105.556 18.8907 105.023 18.688C104.5 18.4853 104.047 18.1707 103.663 17.744C103.29 17.3067 103.103 16.72 103.103 15.984C103.103 15.3653 103.268 14.8053 103.599 14.304C103.94 13.792 104.447 13.3867 105.119 13.088C105.802 12.7893 106.634 12.64 107.615 12.64C108.298 12.64 108.97 12.7253 109.631 12.896C110.292 13.0667 110.863 13.312 111.343 13.632L110.687 15.248C110.196 14.96 109.684 14.7413 109.151 14.592C108.618 14.4427 108.1 14.368 107.599 14.368C106.778 14.368 106.164 14.5067 105.759 14.784C105.364 15.0613 105.167 15.4293 105.167 15.888C105.167 16.208 105.279 16.4693 105.503 16.672C105.738 16.8747 106.031 17.0347 106.383 17.152C106.735 17.2693 107.215 17.4027 107.823 17.552C108.655 17.744 109.338 17.9467 109.871 18.16C110.404 18.3627 110.858 18.6773 111.231 19.104C111.615 19.5307 111.807 20.1067 111.807 20.832C111.807 21.4507 111.636 22.0107 111.295 22.512C110.964 23.0133 110.458 23.4133 109.775 23.712C109.092 24.0107 108.26 24.16 107.279 24.16ZM128.548 19.312L126.772 21.136V24H124.692V12.8H126.772V18.544L132.308 12.8H134.644L129.94 17.808L134.932 24H132.5L128.548 19.312ZM144.373 24.16C143.232 24.16 142.203 23.9147 141.285 23.424C140.368 22.9227 139.648 22.2347 139.125 21.36C138.603 20.4747 138.341 19.488 138.341 18.4C138.341 17.312 138.603 16.3307 139.125 15.456C139.648 14.5707 140.368 13.8827 141.285 13.392C142.203 12.8907 143.232 12.64 144.373 12.64C145.515 12.64 146.544 12.8907 147.461 13.392C148.379 13.8827 149.099 14.5653 149.621 15.44C150.144 16.3147 150.405 17.3013 150.405 18.4C150.405 19.4987 150.144 20.4853 149.621 21.36C149.099 22.2347 148.379 22.9227 147.461 23.424C146.544 23.9147 145.515 24.16 144.373 24.16ZM144.373 22.336C145.12 22.336 145.792 22.1707 146.389 21.84C146.987 21.4987 147.456 21.0293 147.797 20.432C148.139 19.824 148.309 19.1467 148.309 18.4C148.309 17.6533 148.139 16.9813 147.797 16.384C147.456 15.776 146.987 15.3067 146.389 14.976C145.792 14.6347 145.12 14.464 144.373 14.464C143.627 14.464 142.955 14.6347 142.357 14.976C141.76 15.3067 141.291 15.776 140.949 16.384C140.608 16.9813 140.437 17.6533 140.437 18.4C140.437 19.1467 140.608 19.824 140.949 20.432C141.291 21.0293 141.76 21.4987 142.357 21.84C142.955 22.1707 143.627 22.336 144.373 22.336ZM159.666 19.312L157.89 21.136V24H155.81V12.8H157.89V18.544L163.426 12.8H165.762L161.058 17.808L166.05 24H163.618L159.666 19.312ZM175.492 24.16C174.351 24.16 173.322 23.9147 172.404 23.424C171.487 22.9227 170.767 22.2347 170.244 21.36C169.722 20.4747 169.46 19.488 169.46 18.4C169.46 17.312 169.722 16.3307 170.244 15.456C170.767 14.5707 171.487 13.8827 172.404 13.392C173.322 12.8907 174.351 12.64 175.492 12.64C176.634 12.64 177.663 12.8907 178.58 13.392C179.498 13.8827 180.218 14.5653 180.74 15.44C181.263 16.3147 181.524 17.3013 181.524 18.4C181.524 19.4987 181.263 20.4853 180.74 21.36C180.218 22.2347 179.498 22.9227 178.58 23.424C177.663 23.9147 176.634 24.16 175.492 24.16ZM175.492 22.336C176.239 22.336 176.911 22.1707 177.508 21.84C178.106 21.4987 178.575 21.0293 178.916 20.432C179.258 19.824 179.428 19.1467 179.428 18.4C179.428 17.6533 179.258 16.9813 178.916 16.384C178.575 15.776 178.106 15.3067 177.508 14.976C176.911 14.6347 176.239 14.464 175.492 14.464C174.746 14.464 174.074 14.6347 173.476 14.976C172.879 15.3067 172.41 15.776 172.068 16.384C171.727 16.9813 171.556 17.6533 171.556 18.4C171.556 19.1467 171.727 19.824 172.068 20.432C172.41 21.0293 172.879 21.4987 173.476 21.84C174.074 22.1707 174.746 22.336 175.492 22.336ZM190.401 24.16C189.537 24.16 188.7 24.0373 187.889 23.792C187.089 23.5467 186.454 23.2213 185.985 22.816L186.705 21.2C187.164 21.5627 187.724 21.8613 188.385 22.096C189.057 22.32 189.729 22.432 190.401 22.432C191.233 22.432 191.852 22.2987 192.257 22.032C192.673 21.7653 192.881 21.4133 192.881 20.976C192.881 20.656 192.764 20.3947 192.529 20.192C192.305 19.9787 192.017 19.8133 191.665 19.696C191.313 19.5787 190.833 19.4453 190.225 19.296C189.372 19.0933 188.678 18.8907 188.145 18.688C187.622 18.4853 187.169 18.1707 186.785 17.744C186.412 17.3067 186.225 16.72 186.225 15.984C186.225 15.3653 186.39 14.8053 186.721 14.304C187.062 13.792 187.569 13.3867 188.241 13.088C188.924 12.7893 189.756 12.64 190.737 12.64C191.42 12.64 192.092 12.7253 192.753 12.896C193.414 13.0667 193.985 13.312 194.465 13.632L193.809 15.248C193.318 14.96 192.806 14.7413 192.273 14.592C191.74 14.4427 191.222 14.368 190.721 14.368C189.9 14.368 189.286 14.5067 188.881 14.784C188.486 15.0613 188.289 15.4293 188.289 15.888C188.289 16.208 188.401 16.4693 188.625 16.672C188.86 16.8747 189.153 17.0347 189.505 17.152C189.857 17.2693 190.337 17.4027 190.945 17.552C191.777 17.744 192.46 17.9467 192.993 18.16C193.526 18.3627 193.98 18.6773 194.353 19.104C194.737 19.5307 194.929 20.1067 194.929 20.832C194.929 21.4507 194.758 22.0107 194.417 22.512C194.086 23.0133 193.58 23.4133 192.897 23.712C192.214 24.0107 191.382 24.16 190.401 24.16Z" fill="#151B3B"/>
<path d="M60.8874 39.093C60.2302 39.093 59.635 38.9504 59.1018 38.6652C58.5748 38.3738 58.1594 37.9739 57.8556 37.4655C57.558 36.9571 57.4092 36.3836 57.4092 35.745C57.4092 35.1064 57.5611 34.5329 57.8649 34.0245C58.1687 33.5161 58.5841 33.1193 59.1111 32.8341C59.6443 32.5427 60.2395 32.397 60.8967 32.397C61.4299 32.397 61.9166 32.49 62.3568 32.676C62.797 32.862 63.169 33.1317 63.4728 33.4851L62.6916 34.2198C62.2204 33.7114 61.6407 33.4572 60.9525 33.4572C60.5061 33.4572 60.1062 33.5564 59.7528 33.7548C59.3994 33.947 59.1235 34.2167 58.9251 34.5639C58.7267 34.9111 58.6275 35.3048 58.6275 35.745C58.6275 36.1852 58.7267 36.5789 58.9251 36.9261C59.1235 37.2733 59.3994 37.5461 59.7528 37.7445C60.1062 37.9367 60.5061 38.0328 60.9525 38.0328C61.6407 38.0328 62.2204 37.7755 62.6916 37.2609L63.4728 38.0049C63.169 38.3583 62.7939 38.628 62.3475 38.814C61.9073 39 61.4206 39.093 60.8874 39.093ZM71.3458 32.49V39H70.1368V36.21H66.7702V39H65.5612V32.49H66.7702V35.1777H70.1368V32.49H71.3458ZM78.2424 37.4934H74.9874L74.3457 39H73.0995L76.029 32.49H77.2194L80.1582 39H78.8934L78.2424 37.4934ZM77.8425 36.5448L76.6149 33.699L75.3966 36.5448H77.8425ZM86.1756 39L84.8457 37.0935C84.7899 37.0997 84.7062 37.1028 84.5946 37.1028H83.1252V39H81.9162V32.49H84.5946C85.1588 32.49 85.6486 32.583 86.064 32.769C86.4856 32.955 86.808 33.2216 87.0312 33.5688C87.2544 33.916 87.366 34.3283 87.366 34.8057C87.366 35.2955 87.2451 35.7171 87.0033 36.0705C86.7677 36.4239 86.4267 36.6874 85.9803 36.861L87.4776 39H86.1756ZM86.1477 34.8057C86.1477 34.3903 86.0113 34.071 85.7385 33.8478C85.4657 33.6246 85.0658 33.513 84.5388 33.513H83.1252V36.1077H84.5388C85.0658 36.1077 85.4657 35.9961 85.7385 35.7729C86.0113 35.5435 86.1477 35.2211 86.1477 34.8057ZM89.6486 32.49H90.8576V39H89.6486V32.49ZM94.869 33.513H92.7114V32.49H98.2356V33.513H96.078V39H94.869V33.513ZM102.791 36.7029V39H101.582V36.7215L99.0242 32.49H100.317L102.223 35.6613L104.149 32.49H105.339L102.791 36.7029ZM113.602 39.093C112.939 39.093 112.34 38.9504 111.807 38.6652C111.274 38.3738 110.855 37.9739 110.552 37.4655C110.248 36.9509 110.096 36.3774 110.096 35.745C110.096 35.1126 110.248 34.5422 110.552 34.0338C110.855 33.5192 111.274 33.1193 111.807 32.8341C112.34 32.5427 112.939 32.397 113.602 32.397C114.265 32.397 114.864 32.5427 115.397 32.8341C115.93 33.1193 116.349 33.5161 116.652 34.0245C116.956 34.5329 117.108 35.1064 117.108 35.745C117.108 36.3836 116.956 36.9571 116.652 37.4655C116.349 37.9739 115.93 38.3738 115.397 38.6652C114.864 38.9504 114.265 39.093 113.602 39.093ZM113.602 38.0328C114.036 38.0328 114.427 37.9367 114.774 37.7445C115.121 37.5461 115.394 37.2733 115.592 36.9261C115.791 36.5727 115.89 36.179 115.89 35.745C115.89 35.311 115.791 34.9204 115.592 34.5732C115.394 34.2198 115.121 33.947 114.774 33.7548C114.427 33.5564 114.036 33.4572 113.602 33.4572C113.168 33.4572 112.777 33.5564 112.43 33.7548C112.083 33.947 111.81 34.2198 111.612 34.5732C111.413 34.9204 111.314 35.311 111.314 35.745C111.314 36.179 111.413 36.5727 111.612 36.9261C111.81 37.2733 112.083 37.5461 112.43 37.7445C112.777 37.9367 113.168 38.0328 113.602 38.0328ZM123.579 39L122.249 37.0935C122.193 37.0997 122.11 37.1028 121.998 37.1028H120.529V39H119.32V32.49H121.998C122.562 32.49 123.052 32.583 123.467 32.769C123.889 32.955 124.211 33.2216 124.435 33.5688C124.658 33.916 124.769 34.3283 124.769 34.8057C124.769 35.2955 124.648 35.7171 124.407 36.0705C124.171 36.4239 123.83 36.6874 123.384 36.861L124.881 39H123.579ZM123.551 34.8057C123.551 34.3903 123.415 34.071 123.142 33.8478C122.869 33.6246 122.469 33.513 121.942 33.513H120.529V36.1077H121.942C122.469 36.1077 122.869 35.9961 123.142 35.7729C123.415 35.5435 123.551 35.2211 123.551 34.8057ZM131.497 35.6706H132.641V38.2653C132.307 38.5319 131.916 38.7365 131.47 38.8791C131.023 39.0217 130.564 39.093 130.093 39.093C129.43 39.093 128.831 38.9504 128.298 38.6652C127.765 38.3738 127.347 37.9739 127.043 37.4655C126.739 36.9571 126.587 36.3836 126.587 35.745C126.587 35.1064 126.739 34.5329 127.043 34.0245C127.347 33.5161 127.765 33.1193 128.298 32.8341C128.838 32.5427 129.442 32.397 130.112 32.397C130.657 32.397 131.153 32.4869 131.6 32.6667C132.046 32.8465 132.421 33.11 132.725 33.4572L131.962 34.2012C131.466 33.7052 130.868 33.4572 130.168 33.4572C129.709 33.4572 129.3 33.5533 128.94 33.7455C128.587 33.9377 128.308 34.2074 128.103 34.5546C127.905 34.9018 127.805 35.2986 127.805 35.745C127.805 36.179 127.905 36.5696 128.103 36.9168C128.308 37.264 128.587 37.5368 128.94 37.7352C129.3 37.9336 129.706 38.0328 130.158 38.0328C130.667 38.0328 131.113 37.9212 131.497 37.698V35.6706ZM139.388 37.4934H136.133L135.491 39H134.245L137.175 32.49H138.365L141.304 39H140.039L139.388 37.4934ZM138.988 36.5448L137.761 33.699L136.542 36.5448H138.988ZM148.846 32.49V39H147.851L144.262 34.5918V39H143.062V32.49H144.057L147.647 36.8982V32.49H148.846ZM151.521 32.49H152.73V39H151.521V32.49ZM160.48 37.977V39H154.928V38.1909L158.759 33.513H154.993V32.49H160.359V33.2991L156.527 37.977H160.48ZM166.74 37.4934H163.485L162.843 39H161.597L164.526 32.49H165.717L168.655 39H167.391L166.74 37.4934ZM166.34 36.5448L165.112 33.699L163.894 36.5448H166.34ZM171.407 33.513H169.249V32.49H174.774V33.513H172.616V39H171.407V33.513ZM176.611 32.49H177.82V39H176.611V32.49ZM183.552 39.093C182.888 39.093 182.29 38.9504 181.757 38.6652C181.224 38.3738 180.805 37.9739 180.501 37.4655C180.198 36.9509 180.046 36.3774 180.046 35.745C180.046 35.1126 180.198 34.5422 180.501 34.0338C180.805 33.5192 181.224 33.1193 181.757 32.8341C182.29 32.5427 182.888 32.397 183.552 32.397C184.215 32.397 184.813 32.5427 185.347 32.8341C185.88 33.1193 186.298 33.5161 186.602 34.0245C186.906 34.5329 187.058 35.1064 187.058 35.745C187.058 36.3836 186.906 36.9571 186.602 37.4655C186.298 37.9739 185.88 38.3738 185.347 38.6652C184.813 38.9504 184.215 39.093 183.552 39.093ZM183.552 38.0328C183.986 38.0328 184.376 37.9367 184.724 37.7445C185.071 37.5461 185.344 37.2733 185.542 36.9261C185.74 36.5727 185.84 36.179 185.84 35.745C185.84 35.311 185.74 34.9204 185.542 34.5732C185.344 34.2198 185.071 33.947 184.724 33.7548C184.376 33.5564 183.986 33.4572 183.552 33.4572C183.118 33.4572 182.727 33.5564 182.38 33.7548C182.033 33.947 181.76 34.2198 181.562 34.5732C181.363 34.9204 181.264 35.311 181.264 35.745C181.264 36.179 181.363 36.5727 181.562 36.9261C181.76 37.2733 182.033 37.5461 182.38 37.7445C182.727 37.9367 183.118 38.0328 183.552 38.0328ZM195.054 32.49V39H194.059L190.469 34.5918V39H189.269V32.49H190.265L193.854 36.8982V32.49H195.054Z" fill="#151B3B"/>
<path d="M20.9725 1.32064C21.5821 1.42224 22.1578 1.76091 22.6997 2.13345C23.2077 2.47213 23.6819 2.91241 24.1222 3.35268C24.2915 3.52202 24.4608 3.75909 24.5963 3.96229C24.7318 4.13163 24.9011 4.19937 25.1043 4.19937C25.2059 4.19937 25.3075 4.13163 25.3414 4.06389C25.9849 3.18334 26.8654 2.53986 27.8137 2.03184C28.2878 1.79477 28.762 1.59157 29.3039 1.52383C29.7103 1.4561 30.1167 1.3545 30.5231 1.32064C30.8279 1.28677 31.1666 1.32063 31.4375 1.38836C31.9794 1.52383 32.2165 1.82864 32.2842 2.43826C32.3181 3.18334 32.1487 3.82682 31.8101 4.4703C31.5053 5.04605 31.1666 5.58793 30.794 6.12981C30.2183 6.97649 29.5071 7.68771 28.762 8.36506C28.0846 8.97468 27.3396 9.44882 26.5606 9.8891C25.951 10.2616 25.2736 10.5326 24.5624 10.7358C23.7157 10.9729 22.9029 10.8713 22.0901 10.6342C21.5144 10.431 21.0063 10.0923 20.4983 9.71976C19.9903 9.34722 19.5839 8.90694 19.1775 8.4328C18.9066 8.06026 18.6356 7.68771 18.3986 7.2813C18.1953 6.94262 17.9583 6.60396 17.8228 6.23142C17.6196 5.68954 17.518 5.11379 17.4841 4.50417C17.4841 3.96229 17.518 3.42041 17.6873 2.9124C17.9244 2.20118 18.2969 1.6593 19.0759 1.38836C19.6178 1.21903 20.1597 1.2529 20.7015 1.32064C20.837 1.32064 20.8709 1.32064 20.9725 1.32064Z" fill="#F7AEBD"/>
<path d="M11.388 45.6534C11.7605 45.1454 11.9637 44.6373 12.1669 44.1293C12.4379 43.5197 12.675 42.8762 12.9798 42.2666C13.5555 41.149 14.3006 40.1668 15.3166 39.3879C15.8585 38.9815 16.4342 38.6428 16.9761 38.2703C17.3825 37.9993 17.7889 37.7622 18.1615 37.4913C18.7711 37.0172 19.313 36.4753 19.821 35.8995C20.1935 35.4931 20.5661 35.0529 20.9725 34.6803C21.6837 34.0368 22.5643 33.732 23.5464 33.7659C23.9867 33.7998 24.3931 33.9014 24.8334 33.9691C25.0027 34.003 25.1382 34.0707 25.2736 34.1046C25.8833 34.2739 26.4251 34.6126 26.9332 34.9851C27.3396 35.2899 27.746 35.5947 28.1524 35.9334C28.4233 36.1366 28.6943 36.3737 28.9652 36.5769C29.3377 36.8817 29.7103 37.1526 30.0828 37.4913C30.6247 37.9655 31.2343 38.4057 31.7085 38.9137C32.0133 39.2186 32.3181 39.4895 32.6229 39.7943C32.8938 40.0652 33.2325 40.2346 33.5373 40.4378C33.7066 40.5732 33.876 40.7087 34.0114 40.8781C34.2147 41.1151 34.384 41.3861 34.5195 41.657C34.6549 41.9957 34.7565 42.3682 34.8243 42.7408C34.892 42.9778 34.9259 43.2149 34.9259 43.452C34.9597 43.7568 34.9259 44.0616 34.8581 44.3664C34.7565 44.7051 34.7565 45.0776 34.6549 45.4163C34.5533 45.8227 34.2485 46.1275 33.9776 46.4662C33.4696 47.0419 32.8261 47.3806 32.1149 47.6177C31.1327 47.9563 30.1506 48.295 29.1684 48.7014C28.6943 48.9046 28.2201 49.1078 27.6782 49.1417C27.5766 49.1417 27.475 49.1417 27.4073 49.1078C26.9331 48.7353 26.4929 48.3289 26.2558 47.787C26.1203 47.4822 25.9171 47.3129 25.7478 47.0758C25.6801 46.9742 25.6123 46.9065 25.5785 46.8049C25.443 46.3307 25.2059 45.9582 24.8672 45.6195C24.5286 45.2808 24.2238 44.9421 23.9189 44.5696C23.7835 44.4003 23.7157 44.4003 23.5464 44.5696C23.3771 44.7728 23.2416 44.976 23.0723 45.1454C22.9368 45.2808 22.7336 45.3824 22.5642 45.4502C22.0224 45.6195 21.5482 45.8904 21.1418 46.3307C20.6338 46.8726 20.1597 47.3806 19.6516 47.9225C19.2791 48.295 18.9066 48.7014 18.4324 48.9046C18.0937 49.0401 17.7212 49.1756 17.3148 49.1078C17.1455 49.074 16.9423 49.1078 16.7729 49.1417C16.3665 49.1756 15.9262 49.2433 15.5198 49.074C15.215 48.9385 14.9102 48.803 14.6054 48.6337C13.8603 48.1934 13.2846 47.5838 12.7427 46.9742C12.4717 46.6694 12.2685 46.263 12.0315 45.8566C11.9976 45.9243 11.9299 45.9582 11.896 46.0259C11.6251 46.3646 11.2525 46.3984 10.9816 46.0598C10.9138 45.9582 10.8122 45.8566 10.7784 45.755C10.6768 45.4502 10.5413 45.1454 10.5752 44.8067C10.5752 44.7051 10.5413 44.6373 10.5074 44.5357C10.5074 44.468 10.4397 44.3664 10.4736 44.2987C10.5413 43.7907 10.372 43.2826 10.3381 42.7746C10.2704 41.8602 10.4736 41.0474 10.8461 40.2346C11.1171 39.625 11.4896 39.0492 11.9637 38.5412C12.2008 38.2703 12.5056 38.0332 12.7766 37.7961C13.2846 37.3558 13.7926 36.9494 14.3006 36.543C14.6393 36.2721 14.9779 36.0689 15.3166 35.8318C16.502 35.0867 17.5857 34.2062 18.7034 33.3933C19.1775 33.0547 19.6178 32.6821 20.0919 32.3773C20.5322 32.1064 21.0063 31.937 21.4466 31.7C22.124 31.3613 22.8691 31.2258 23.6141 31.2258C24.2576 31.2258 24.8672 31.3952 25.443 31.6322C25.8833 31.8016 26.3235 32.0048 26.6622 32.3096C27.238 32.8176 27.983 33.1563 28.5927 33.5966C29.27 34.0707 29.8458 34.6126 30.4892 35.1206C30.8618 35.3915 31.2343 35.6625 31.6069 35.8995C31.8101 36.035 32.0133 36.1366 32.1826 36.2721C32.5551 36.6108 33.0293 36.7462 33.368 37.1188C33.5712 37.322 33.8082 37.4913 34.0453 37.6606C34.5533 37.9993 34.9597 38.4057 35.3661 38.8799C35.7048 39.3202 35.908 39.7943 36.1112 40.3023C36.2128 40.5055 36.2806 40.7426 36.416 40.9458C36.7886 41.6909 36.7208 42.4698 36.6192 43.2826C36.5515 43.8923 36.3144 44.4341 36.1451 44.976C36.0774 45.1792 36.0435 45.3824 35.9419 45.5856C35.7726 45.992 35.5016 46.3307 35.1968 46.6694C35.0275 46.8387 34.892 47.0081 34.7227 47.2113C34.6549 47.3129 34.5195 47.4145 34.4179 47.3467C34.3501 47.3129 34.2824 47.1774 34.2485 47.0758C34.1469 46.8726 34.2485 46.7371 34.384 46.5678C34.6888 46.2291 34.9936 45.8904 35.2645 45.5179C35.4677 45.2131 35.5355 44.8744 35.6709 44.5357C35.7726 44.2648 35.8742 43.9939 35.908 43.689C35.9758 43.3842 36.0435 43.0456 36.0774 42.7408C36.1112 42.436 36.1112 42.1311 36.1112 41.8602C36.1112 41.7247 36.0774 41.5893 36.0435 41.4877C35.908 41.0813 35.7048 40.6748 35.5355 40.3023C35.4 39.9975 35.2307 39.7266 35.0613 39.4556C34.8581 39.1169 34.5533 38.846 34.2485 38.5751C33.6728 38.0332 33.0632 37.5929 32.4197 37.1526C32.2842 37.051 32.081 36.9833 31.9455 36.8817C31.5391 36.6108 31.1327 36.3398 30.7602 36.0689C30.4554 35.8657 30.1844 35.6286 29.9135 35.3915C29.4732 35.019 29.0329 34.6464 28.5588 34.2739C28.254 34.0368 27.9153 33.8675 27.5766 33.6643C27.1025 33.3595 26.6622 33.0208 26.1881 32.716C25.5446 32.2757 24.8334 32.0048 24.0544 31.9032C23.3093 31.8016 22.5981 31.9032 21.9546 32.1741C21.0741 32.5467 20.1935 32.9531 19.4484 33.5966C18.9743 34.003 18.4663 34.3416 17.9921 34.6803C17.5857 34.9851 17.2132 35.2899 16.8068 35.5609C16.0617 36.0689 15.3166 36.543 14.6054 37.0849C13.7926 37.6606 13.0136 38.3041 12.3363 39.0492C11.9637 39.4556 11.6589 39.9298 11.4219 40.4716C11.2525 40.878 11.1171 41.3183 10.9816 41.7586C10.9477 41.8602 10.9477 41.9618 10.9477 42.0973C10.9477 42.7069 10.9477 43.3165 10.9816 43.96C10.9816 44.2987 11.0154 44.6035 11.0493 44.9421C11.0493 45.1454 11.0832 45.3147 11.117 45.484C11.2187 45.484 11.3203 45.5518 11.388 45.6534ZM21.8869 37.7622C21.4466 37.8977 21.1079 37.7284 20.8031 37.5252C20.4645 37.322 20.2274 37.0172 20.1258 36.5769C20.0242 36.6446 19.9903 36.7462 19.8887 36.8478C19.3468 37.322 18.8388 37.7961 18.297 38.2364C17.7551 38.6428 17.1116 38.9815 16.5358 39.3879C16.0956 39.6588 15.6553 39.9636 15.2827 40.3023C14.5377 41.0135 13.928 41.8263 13.4878 42.7746C13.0475 43.6891 12.675 44.6373 12.2347 45.5856V45.6195C12.404 45.6872 12.6072 45.6872 12.7427 45.7888C12.8782 45.8904 13.0136 46.0936 13.1152 46.263C13.3523 46.7371 13.7248 47.1435 14.0974 47.5161C14.4361 47.8547 14.8086 48.1257 15.215 48.3628C15.5198 48.5321 15.8924 48.6676 16.231 48.6337C16.4681 48.5998 16.739 48.5998 16.9761 48.566C17.3825 48.5321 17.8567 48.566 18.2292 48.3289C18.5002 48.1257 18.805 47.9225 19.042 47.6854C19.6178 47.0758 20.1597 46.4662 20.7354 45.8566C21.1418 45.4502 21.5821 45.0776 22.1578 44.9421C22.4626 44.8744 22.6997 44.7051 22.8691 44.468C22.9368 44.4003 23.0045 44.2987 23.0384 44.2309C23.14 44.1293 23.2416 43.9939 23.3093 43.8923C23.4448 43.7229 23.2755 43.5875 23.2416 43.452C23.2077 43.0117 23.14 42.6053 23.1739 42.165C23.1739 41.8263 23.1739 41.4877 23.3093 41.149C23.3432 41.0813 23.3093 40.9797 23.3093 40.8781C23.3093 40.5394 23.2755 40.2007 23.4787 39.9298C23.648 39.862 23.7157 39.9298 23.8173 40.0652C23.9189 40.2007 23.9528 40.37 23.9189 40.5394C23.8851 40.7765 23.9189 41.0135 23.9189 41.2845C23.9189 41.3522 23.9189 41.3861 23.8851 41.4538C23.6819 42.1989 23.7496 42.9778 23.9189 43.7229C23.9528 43.8584 24.0544 43.9939 24.156 44.1293C24.5286 44.5357 24.935 44.9083 25.2736 45.3147C25.5446 45.6195 25.7817 45.992 25.9849 46.3307C26.1542 46.6017 26.2897 46.9065 26.459 47.1774C26.6961 47.5838 27.0009 47.9564 27.238 48.3289C27.4073 48.566 27.5428 48.6676 27.8137 48.566C28.1862 48.4644 28.5927 48.3289 28.9652 48.1934C29.8119 47.8547 30.6924 47.5161 31.5391 47.1774C31.8439 47.0419 32.1826 46.9403 32.4874 46.8387C33.1648 46.5678 33.6389 46.0598 34.0114 45.4163C34.2485 45.0099 34.2824 44.5696 34.384 44.1293C34.4179 43.96 34.4179 43.7907 34.4179 43.5874C34.4517 43.0794 34.2147 42.6053 34.1131 42.1312C34.0792 42.0296 34.0453 41.9618 33.9776 41.8941C33.6728 41.3861 33.2325 41.0135 32.7584 40.6748C32.3858 40.4039 32.0133 40.133 31.6746 39.7604C31.4037 39.4556 31.1327 39.1847 30.8279 38.9137C30.557 38.6767 30.2183 38.4735 29.9474 38.2364C29.5071 37.8639 29.0668 37.4574 28.6265 37.0849C28.4233 36.9156 28.254 36.7462 28.0508 36.6108C27.746 36.3737 27.4412 36.1705 27.1364 35.9673C27.3057 36.5092 27.2718 37.0172 26.8993 37.3897C26.4929 37.83 25.951 37.7622 25.443 37.6268C25.3075 38.3041 24.7318 39.1169 24.156 39.4556C24.1221 39.4895 24.0544 39.4895 23.9867 39.5234C23.8173 39.5572 23.648 39.5911 23.4787 39.625C23.3432 39.5572 23.1739 39.4895 23.0723 39.3879C22.7336 39.1508 22.4288 38.9137 22.124 38.6428C21.9546 38.3719 21.9546 38.0332 21.8869 37.7622ZM24.0205 38.5751C24.0883 38.5412 24.1221 38.5412 24.156 38.5073C24.3254 38.3041 24.4947 38.1009 24.6302 37.8977C24.8672 37.5929 24.8672 37.2542 24.664 36.9156C24.6302 36.8478 24.5963 36.814 24.5624 36.7462C24.4608 36.5091 24.4608 36.2721 24.5286 36.035C24.5624 35.8657 24.8334 35.7302 24.9688 35.7979C25.1043 35.8657 25.3075 36.2043 25.3075 36.3398C25.3075 36.4414 25.2736 36.543 25.2736 36.6446C25.5107 36.7462 25.6801 36.9494 25.951 36.9494C26.3913 36.9494 26.5945 36.814 26.6961 36.3398C26.7638 36.0689 26.5606 35.7979 26.2558 35.6625C26.1542 35.6286 26.0526 35.5947 25.9849 35.5609C25.7139 35.4593 25.443 35.3238 25.1382 35.2899C24.7995 35.2222 24.4608 35.1883 24.0883 35.1883C23.5803 35.1883 23.0723 35.2561 22.5642 35.4254C22.124 35.5609 21.7176 35.7979 21.345 36.035C21.2096 36.1366 21.0741 36.2382 20.9725 36.3737C20.837 36.5092 20.7693 36.7124 20.8709 36.8817C20.9725 37.0172 21.1418 37.0849 21.2773 37.1865C21.3112 37.2204 21.4128 37.1865 21.4805 37.1865C21.7514 37.1865 21.8869 37.051 21.9885 36.814C22.0562 36.6785 22.124 36.543 22.2256 36.4075C22.361 36.2382 22.4288 36.0011 22.6997 35.9334C22.7675 36.0011 22.8691 36.0689 22.9368 36.1705C23.0723 36.2721 23.0723 36.4075 23.0384 36.5769C22.9707 36.814 22.8691 37.051 22.8013 37.2881C22.7336 37.5252 22.6659 37.7284 22.5981 37.9655C22.5642 38.1348 22.5643 38.3041 22.6997 38.4057C22.9029 38.5412 23.1061 38.6767 23.2755 38.7783C23.3432 38.5412 23.3771 38.3041 23.4787 38.1009C23.5803 37.8977 23.7157 37.8639 23.9189 38.0332C23.9867 38.1009 24.0544 38.1348 24.1222 38.2025C24.0544 38.2703 24.0544 38.4057 24.0205 38.5751ZM21.5144 35.1545C22.6659 34.6464 23.8512 34.4771 25.1043 34.6803C25.0704 34.6126 25.0366 34.6126 25.0366 34.6126C24.3931 34.4771 23.7157 34.3078 23.0384 34.4094C22.4626 34.511 21.9546 34.748 21.5144 35.1545Z" fill="black"/>
<path d="M24.6641 3.69156C24.8334 3.28515 25.0705 2.98034 25.3414 2.7094C25.8833 2.16752 26.4929 1.62564 27.1364 1.18536C27.5089 0.948289 27.8476 0.711218 28.2879 0.541881C28.4234 0.508014 28.525 0.406411 28.6604 0.372544C29.3039 0.101604 29.9813 0 30.6586 0C31.0989 0 31.573 0.0677411 31.9456 0.440283C32.081 0.575753 32.2843 0.677351 32.3859 0.880556C32.7245 1.38857 32.7245 1.96431 32.7245 2.57393C32.6907 3.48835 32.352 4.33504 31.9794 5.14786C31.6408 5.85907 31.2005 6.53642 30.7264 7.1799C30.049 8.09432 29.3039 8.90714 28.4572 9.65222C27.746 10.2618 27.0348 10.8376 26.1881 11.244C25.443 11.5827 24.6641 11.7859 23.8174 11.7859C22.8691 11.8197 21.9886 11.5827 21.1419 11.1763C20.6 10.9053 20.1258 10.5666 19.6856 10.1941C19.2114 9.82156 18.7711 9.41515 18.3647 8.97487C17.8229 8.39913 17.4164 7.72178 17.0778 7.01057C16.7391 6.26548 16.6036 5.48653 16.6375 4.63984C16.6714 3.72542 17.0439 3.0142 17.7213 2.40459C18.0938 2.06592 18.5002 1.82885 19.0082 1.76111C19.2792 1.72724 19.5501 1.69338 19.821 1.62564C19.9904 1.59178 20.1597 1.69337 20.329 1.69337C20.6339 1.69337 20.9048 1.79498 21.2096 1.79498C21.5144 1.82885 21.7853 1.96431 22.0563 2.06592C22.6998 2.26912 23.2755 2.6078 23.8174 3.01421C24.0883 3.18355 24.3254 3.42062 24.5625 3.62382C24.5286 3.62382 24.5963 3.65769 24.6641 3.69156ZM20.3629 2.20138C20.2613 2.20138 20.1936 2.20138 20.1597 2.20138C19.6178 2.20138 19.0759 2.23526 18.5679 2.5062C17.8567 2.87874 17.518 3.45449 17.4164 4.19957C17.3148 4.74145 17.3826 5.24946 17.4503 5.79134C17.5519 6.40095 17.7551 6.94283 18.0261 7.45084C18.2293 7.78951 18.5002 8.09433 18.7373 8.433C19.0421 8.77168 19.3469 9.14422 19.6856 9.44903C20.1258 9.85544 20.6339 10.2618 21.1757 10.5328C21.7176 10.8376 22.2595 11.1085 22.8691 11.2101C23.7158 11.3456 24.5286 11.3117 25.3414 10.9731C26.0188 10.6683 26.6284 10.2957 27.2041 9.85543C27.9154 9.31355 28.5927 8.70394 29.1684 8.02659C29.8119 7.24764 30.4215 6.43482 30.8618 5.5204C31.1328 4.94465 31.4037 4.33503 31.6069 3.72542C31.844 3.04807 31.9456 2.37073 31.7762 1.65951C31.6408 1.0499 31.336 0.778955 30.7941 0.745088C30.4893 0.711221 30.1506 0.745092 29.8797 0.812827C29.4733 0.914429 29.1007 1.04989 28.6943 1.18536C28.1863 1.3547 27.7121 1.59177 27.3057 1.89658C26.4252 2.54006 25.6462 3.28514 25.1382 4.2673C25.1044 4.33504 25.0028 4.40277 24.9012 4.43664C24.6979 4.47051 24.5286 4.43664 24.3931 4.30117C24.2238 4.13183 24.0206 3.92863 23.8174 3.79316C23.3094 3.42062 22.8014 3.08194 22.2256 2.811C21.5821 2.43846 20.9725 2.20138 20.3629 2.20138Z" fill="black"/>
<path d="M7.52715 32.987C7.29008 32.987 7.08687 33.0209 6.8498 33.0209C6.61273 33.0547 6.47725 32.9531 6.37565 32.7161C6.34178 32.6483 6.30792 32.6145 6.34179 32.479C6.44339 32.3774 6.44339 32.3096 6.54499 32.208C7.22234 31.6323 7.96742 31.1582 8.84798 30.9211C9.49146 30.7517 10.1688 30.5824 10.8123 30.5485C11.151 30.5147 11.4896 30.5824 11.8622 30.6163C12.0654 30.6501 12.3025 30.6501 12.5057 30.7179C12.7766 30.7856 13.0475 30.8872 13.3185 31.0227C13.7588 31.2259 14.1652 31.463 14.5377 31.8016C14.707 31.971 14.9103 32.1403 15.0457 32.3096C15.2151 32.5129 15.2151 32.7499 15.1812 32.987C15.1135 33.6643 14.8086 34.2401 14.3684 34.7142C14.1652 34.9174 13.8942 35.0529 13.6233 35.2222C13.2846 35.4254 12.9459 35.5948 12.6073 35.7303C12.0654 35.9673 11.5235 36.1028 10.9478 35.9673C10.3043 35.8319 9.69467 35.5948 9.15279 35.2561C8.91571 35.0868 8.67864 34.8836 8.44157 34.7142C8.33997 34.6126 8.23836 34.4772 8.17063 34.3417C7.96742 33.9692 7.73035 33.5966 7.52715 33.2241C7.52715 33.1563 7.52715 33.0547 7.52715 32.987ZM13.5894 32.2419C13.6233 32.8515 13.5894 33.3257 13.3862 33.7998C13.3185 34.003 13.2169 34.1723 13.1153 34.3756C13.0475 34.511 13.0137 34.6465 12.9459 34.8497C13.454 34.6126 13.8604 34.4094 14.199 34.0707C14.2668 34.003 14.4022 33.9353 14.4361 33.8337C14.5377 33.5966 14.6054 33.3595 14.6732 33.1563C14.7409 32.987 14.6732 32.8515 14.5377 32.7499C14.2668 32.5806 13.962 32.4112 13.5894 32.2419ZM10.9139 32.5467C11.3203 32.7499 11.3203 32.7499 11.3542 32.9193C11.4558 33.2241 11.4558 33.2241 11.6928 33.0547C12.0315 32.8515 12.2009 32.9193 12.2686 33.2918C12.2686 33.3257 12.3025 33.3257 12.3363 33.3934C12.4379 33.2579 12.5395 33.1225 12.6411 32.987C12.7427 32.987 12.8105 32.987 12.9121 33.0209C12.9121 32.716 12.9121 32.4113 12.9121 32.1403C12.675 32.1064 12.4718 32.0387 12.2347 32.0048C11.8622 31.971 11.4896 31.971 11.0832 31.9371C11.0155 32.1403 10.9816 32.3435 10.9139 32.5467ZM9.05118 34.3417C8.94958 34.0369 8.84798 33.7321 8.78024 33.4273C8.71251 33.1225 8.67864 32.8177 8.61091 32.5128C8.4077 32.6144 8.2045 32.7161 7.96743 32.8177C8.2045 33.4273 8.5093 33.9692 9.05118 34.3417ZM8.10289 31.971C9.18665 31.5984 10.2365 31.2936 11.388 31.2936C10.88 31.0227 8.71251 31.5646 8.10289 31.971Z" fill="black"/>
<path d="M42.072 26.3152C42.0381 26.1458 42.1397 26.0781 42.2413 26.0104C42.58 25.7733 42.9186 25.5701 43.2573 25.2991C43.8669 24.8589 44.4427 24.3847 45.0523 23.9106C45.1878 23.809 45.2555 23.6396 45.391 23.5042C45.9667 22.9284 46.2377 22.1833 46.4747 21.4044C46.7457 20.5238 46.8811 19.6433 46.8811 18.7289C46.8811 18.187 46.8473 17.6451 46.7795 17.0694C46.7118 16.2565 46.6102 15.4099 46.4747 14.597C46.3731 13.8519 46.3054 13.073 46.1022 12.3618C46.0683 12.2602 46.0683 12.1247 46.0344 12.0231C46.0006 11.5151 45.7974 11.0748 45.6958 10.6007C45.5942 10.0588 45.5603 9.55078 45.628 9.0089C45.7296 8.33155 45.7974 7.62034 45.6958 6.94299C45.6619 6.60431 45.5264 6.29951 45.4248 5.9947C45.3571 5.85923 45.2216 5.82537 45.0523 5.85923C44.4765 6.02857 43.9008 6.19791 43.3589 6.36725C42.817 6.53658 42.309 6.73978 41.801 6.97686C41.3269 7.18006 40.8527 7.38327 40.4124 7.6542C39.8028 7.99288 39.2271 8.39929 38.6513 8.77184C37.9401 9.24598 37.3305 9.82172 36.7548 10.3975C36.0436 11.1426 35.3662 11.9215 34.7566 12.7682C34.2147 13.4794 33.876 14.2922 33.639 15.1389C33.4019 15.9179 33.2664 16.6968 33.3342 17.5096C33.368 17.8144 33.2326 17.916 32.9955 17.916C32.8261 17.916 32.7245 17.8144 32.7245 17.679C32.6907 17.4758 32.6907 17.2726 32.6907 17.0694C32.6907 16.2904 32.86 15.5115 33.0971 14.8002C33.368 13.9536 33.7406 13.1407 34.2824 12.3956C34.5195 12.0908 34.7566 11.8199 34.9937 11.549C35.1969 11.278 35.4339 11.041 35.6371 10.77C36.45 9.82173 37.3305 8.97504 38.3465 8.26382C39.1932 7.65421 40.0738 7.11233 40.9882 6.67205C41.4285 6.46885 41.9365 6.2995 42.4106 6.0963C42.9525 5.8931 43.4944 5.6899 44.0701 5.52056C44.4427 5.41896 44.8152 5.31735 45.1878 5.24961C45.3232 5.21575 45.4248 5.24962 45.5264 5.31735C46.0344 5.58829 46.1699 6.09631 46.3393 6.57045C46.6102 7.38327 46.4747 8.19608 46.407 9.0089C46.3731 9.27984 46.3054 9.51692 46.3054 9.75399C46.3393 10.1265 46.407 10.5329 46.4747 10.9055C46.6102 11.5828 46.8134 12.2602 46.9489 12.9714C47.0505 13.5133 47.1182 14.089 47.1859 14.6309C47.2875 15.376 47.3891 16.1211 47.4907 16.8662C47.6262 17.9838 47.694 19.0675 47.4907 20.1852C47.3891 20.727 47.2875 21.2689 47.1521 21.8108C46.9489 22.4543 46.7457 23.1316 46.2715 23.6396C46.0006 23.9445 45.7635 24.2831 45.4587 24.5879C45.1539 24.8927 44.8152 25.1298 44.4765 25.4007C44.104 25.6717 43.7653 25.9426 43.3928 26.1797C43.2234 26.3152 43.0202 26.4168 42.817 26.5184C42.4784 26.5522 42.1397 26.5184 42.072 26.3152Z" fill="black"/>
<path d="M37.5675 32.987C37.4998 33.4612 37.3305 33.8676 37.0257 34.274C36.6531 34.7481 36.179 35.0868 35.5694 35.2561C35.5355 35.2561 35.4678 35.2561 35.4339 35.29C34.892 35.5948 34.3163 35.5948 33.7744 35.4593C33.1986 35.3577 32.6568 35.1207 32.1826 34.7481C31.9794 34.6126 31.7762 34.511 31.6069 34.3078C31.4037 34.0708 31.1327 33.8676 30.9973 33.6305C30.7263 33.0886 30.4215 32.4451 30.9295 31.8355C30.9634 31.8016 30.9634 31.7678 30.9295 31.7339C30.8279 31.8694 30.7263 32.0049 30.6247 32.1403C30.4554 32.3435 30.1167 32.0726 30.1167 31.9371C30.1167 31.7339 30.2183 31.5984 30.3199 31.4968C30.6586 31.1243 31.065 30.9211 31.5391 30.7856C31.8778 30.684 32.2165 30.5486 32.5552 30.4808C33.0632 30.3792 33.5373 30.4131 34.0453 30.447C34.5533 30.4808 35.0275 30.6502 35.5016 30.7518C36.1451 30.8872 36.687 31.2259 37.1611 31.6323C37.5675 31.971 37.9062 32.3774 38.1772 32.8177C38.2449 32.9531 38.211 33.0547 38.1433 33.1225C38.1094 33.1902 37.9739 33.2241 37.8723 33.2241C37.8385 33.1225 37.7369 33.0548 37.5675 32.987ZM36.3483 32.0387C36.3483 32.0049 36.3483 32.0049 36.3483 31.971C35.8742 31.8017 35.4 31.6662 34.9259 31.4968C34.7565 31.8355 34.6211 32.1065 34.4517 32.4451C34.7565 32.479 34.6211 32.7499 34.6549 32.9193C34.7904 32.987 34.9259 33.0547 35.0613 33.0886C35.163 33.0547 35.2645 32.987 35.3323 32.9531C35.4678 33.0209 35.6032 33.0547 35.7726 33.1225C35.8403 32.8515 35.9419 32.6145 35.9758 32.3435C36.0435 32.1403 36.1112 32.0049 36.3483 32.0387ZM36.687 32.2419C36.5854 32.5467 36.4838 32.8854 36.416 33.1902C36.3144 33.5289 36.1451 33.7998 35.908 34.0369C35.671 34.274 35.4339 34.4772 35.1968 34.7142C36.179 34.3756 36.8563 33.7998 36.9579 32.7161C36.9918 32.3774 37.0257 32.3774 36.687 32.2419ZM31.573 33.3595C31.5391 32.987 31.5391 32.6145 31.5053 32.2419C31.1666 32.5129 31.1666 32.6822 31.573 33.3595ZM33.8421 34.5788C34.0115 34.6804 34.1131 34.6465 34.2147 34.5111C34.2147 34.5111 34.2147 34.4772 34.2147 34.4433C34.1469 34.4094 34.0453 34.3417 33.9437 34.3078C33.9099 34.4094 33.876 34.4772 33.8421 34.5788Z" fill="black"/>
<path d="M14.707 16.629C14.47 16.6629 14.4022 16.4935 14.3684 16.3581C14.1652 15.5114 13.8265 14.7324 13.5555 13.9535C13.3185 13.2761 12.9121 12.7004 12.4718 12.1585C12.2008 11.8537 11.9638 11.515 11.7267 11.2102C11.2864 10.6683 10.7445 10.2281 10.1349 9.85551C9.69466 9.58457 9.25438 9.3475 8.78024 9.14429C8.13676 8.87335 7.49328 8.70401 6.84979 8.46694C6.40952 8.33147 6.00311 8.19601 5.56283 8.06054C5.29189 7.95894 4.98708 7.85733 4.68228 7.85733C3.83559 7.7896 3.02277 7.55253 2.31156 7.04452C1.97288 6.80744 1.56647 6.67197 1.12619 6.80744C0.821387 6.90904 0.618183 7.11225 0.618183 7.41706C0.65205 7.99281 0.685916 8.56855 0.719783 9.17816C0.753651 9.65231 0.821386 10.1265 0.889121 10.5667C0.922988 10.9054 1.02459 11.2441 1.05846 11.5489C1.12619 12.2601 1.16006 12.9713 1.2278 13.6825C1.3294 14.597 1.39713 15.5452 1.56647 16.4597C1.70194 17.2725 1.83741 18.0853 1.97288 18.8643C2.00675 18.9997 2.04061 19.1352 2.07448 19.2368C2.20995 20.219 2.61636 21.0995 3.12437 21.9462C3.59852 22.759 4.17426 23.5041 4.85161 24.1814C4.88548 24.2153 4.95322 24.283 5.02095 24.3169C5.39349 24.5879 5.42736 24.6895 5.29189 25.1297C5.15642 25.1975 5.05482 25.1636 4.91935 25.062C4.47907 24.7572 4.1404 24.3846 3.80172 23.9782C3.19211 23.267 2.6841 22.4881 2.24382 21.6752C1.87128 20.964 1.63421 20.1512 1.49874 19.3384C1.29553 18.0853 1.05846 16.8322 0.855254 15.5791C0.753651 14.9018 0.719784 14.1905 0.65205 13.5132C0.584315 12.9375 0.584314 12.3617 0.516579 11.786C0.414977 11.007 0.279507 10.2281 0.177905 9.44911C0.11017 8.9411 0.0763024 8.39921 0.0085675 7.8912C-0.0591674 7.17999 0.279507 6.73971 0.855254 6.40104C1.09233 6.26557 1.36327 6.2317 1.63421 6.19783C2.14222 6.13009 2.54863 6.4349 2.92117 6.67197C3.25984 6.87518 3.63239 7.07838 4.00493 7.17998C4.27587 7.24772 4.51294 7.31545 4.78388 7.31545C5.46123 7.34932 6.03697 7.62026 6.68046 7.78959C7.12073 7.92506 7.56101 8.02667 8.00128 8.19601C8.94957 8.53468 9.89786 8.90722 10.7446 9.48297C11.3203 9.88938 11.8622 10.2958 12.3024 10.8377C12.675 11.3457 13.0814 11.8198 13.4539 12.3278C13.9281 12.9713 14.2329 13.6825 14.47 14.4615C14.6393 14.9356 14.7748 15.4436 14.978 15.9178C15.0457 16.121 14.9102 16.3581 14.707 16.629Z" fill="black"/>
<path d="M9.93171 46.1613C9.79624 46.1274 9.69464 46.0258 9.62691 45.9242C9.49144 45.7548 9.38983 45.6194 9.25436 45.45C9.05116 45.1791 8.84796 44.9082 8.64475 44.6711C8.03514 43.926 7.59486 43.0793 7.18845 42.2326C6.81591 41.4198 6.54497 40.5393 6.37563 39.6926C6.17242 38.7781 6.03696 37.8637 5.83375 36.9493C5.69828 36.3058 5.56281 35.6623 5.46121 35.0189C5.32574 34.1044 5.1564 33.1561 5.08867 32.2079C5.02093 31.1918 5.0548 30.1419 5.08867 29.1259C5.12253 28.2792 5.19027 27.4664 5.29187 26.6536C5.35961 25.9424 5.52894 25.265 5.63055 24.5538C5.66441 24.4183 5.66441 24.3167 5.69828 24.1813C5.73215 23.9781 5.83375 23.8765 6.00309 23.8765C6.20629 23.8765 6.3079 23.9781 6.34176 24.1813C6.34176 24.3167 6.34176 24.4183 6.34176 24.5538C6.10469 25.4344 6.03696 26.3488 5.93536 27.2294C5.86762 27.9406 5.79988 28.6856 5.79988 29.3969C5.76602 30.2097 5.76602 31.0225 5.79988 31.8692C5.83375 32.5465 5.90149 33.2239 6.00309 33.8674C6.07082 34.4092 6.17243 34.985 6.27403 35.5269C6.37563 36.0688 6.47723 36.5768 6.57884 37.1186C6.71431 37.796 6.84977 38.4395 6.98524 39.1168C7.15458 39.9974 7.39165 40.8441 7.73033 41.6569C8.069 42.4358 8.44154 43.1809 8.91569 43.8583C9.25436 44.3324 9.62691 44.7388 9.96558 45.213C10.1011 45.3823 10.2365 45.5855 10.372 45.7887C10.4736 45.9242 10.4397 46.0258 10.3381 46.1274C10.1688 46.1274 10.101 46.1613 9.93171 46.1613Z" fill="black"/>
<path d="M40.8866 24.5201C40.8528 24.3507 41.3946 24.1814 41.4624 24.6217C41.5301 25.0281 41.7333 25.6377 41.801 26.0441C41.8688 26.4844 41.9365 26.9246 41.9365 27.3649C41.9365 28.2455 41.9704 29.126 41.9026 30.0066C41.8688 30.6501 41.7672 31.2935 41.6994 31.9032C41.6317 32.3773 41.4962 32.8853 41.3946 33.3594C41.2253 34.3077 41.1237 35.256 41.0898 36.2043C41.056 36.7801 40.9544 37.3897 40.8528 37.9654C40.785 38.4734 40.6834 39.0153 40.5479 39.5233C40.3786 40.0991 40.2093 40.6748 39.8706 41.149C39.8706 41.1828 39.8367 41.1828 39.8367 41.2167C39.4642 41.894 39.0239 42.5375 38.6852 43.2487C38.3804 43.8584 37.974 44.4002 37.7708 45.0437C37.7031 45.2131 37.5337 45.3485 37.3983 45.5179C37.3305 45.5856 37.1951 45.6872 37.1273 45.5856C37.0596 45.484 36.9919 45.3485 37.0257 45.2131C37.0596 45.0099 37.1951 44.8405 37.2628 44.6712C37.5337 44.1632 37.8386 43.6552 38.1095 43.1133C38.482 42.3682 38.9562 41.6908 39.3626 40.9458C39.7013 40.3362 39.8706 39.6927 40.0061 39.0153C40.1415 38.338 40.277 37.6606 40.3786 36.9494C40.4463 36.5091 40.4125 36.035 40.4463 35.5608C40.4802 34.9851 40.5141 34.4093 40.6496 33.8675C40.9205 32.5466 41.1237 31.2597 41.2253 29.905C41.2592 29.3631 41.2592 28.8212 41.2592 28.2455C41.2592 27.7375 41.2253 27.2294 41.1914 26.7214C41.1576 26.3828 41.0898 26.0441 41.0221 25.7054C40.9544 25.3329 40.8528 24.6555 40.8866 24.5201Z" fill="black"/>
<path d="M15.0119 14.9354C15.0796 14.7999 15.249 14.7661 15.3506 14.7661C15.8586 14.6645 16.3666 14.5967 16.8746 14.6645C17.8229 14.7661 18.805 14.8677 19.7195 15.0709C20.363 15.2063 21.0403 15.3757 21.6838 15.4434C22.395 15.545 23.1062 15.6128 23.8174 15.6466C25.1383 15.7144 26.493 15.7482 27.8138 15.7482C28.5589 15.7482 29.3378 15.5789 30.0829 15.4773C30.5232 15.4096 30.9973 15.3757 31.4376 15.308C31.6408 15.2741 31.844 15.2402 32.0811 15.2064C32.2166 15.1725 32.3859 15.2064 32.4198 15.3418C32.4536 15.4773 32.4536 15.6128 32.4536 15.7482C32.4536 15.7821 32.3182 15.816 32.2504 15.8498C31.844 15.9176 31.4376 15.9853 31.0312 16.0192C30.32 16.1208 29.6426 16.2224 28.9314 16.324C28.6605 16.3578 28.3895 16.3917 28.1186 16.3917C27.5767 16.3917 27.0348 16.3917 26.493 16.3917C25.7817 16.3917 25.0705 16.3917 24.3254 16.3578C23.7158 16.324 23.1062 16.2224 22.4966 16.1885C21.6499 16.1208 20.8371 15.9176 20.0243 15.7482C19.5163 15.6466 18.9744 15.5789 18.4664 15.5112C18.0261 15.4434 17.5858 15.3418 17.1455 15.308C16.6375 15.2741 16.1295 15.3418 15.5876 15.3757C15.5199 15.3757 15.4522 15.4096 15.3844 15.4096C15.1135 15.4434 15.0458 15.4096 14.978 15.1386C15.0119 15.0709 15.0119 15.037 15.0119 14.9354Z" fill="black"/>
<path d="M26.4252 48.2949C26.4591 48.3288 26.459 48.3627 26.459 48.3627C26.6284 48.7352 26.6623 48.8368 26.222 49.04C25.9172 49.1755 25.6124 49.3787 25.3076 49.5142C24.7318 49.819 24.1561 50.056 23.4787 49.9883C23.1739 49.9544 22.8352 50.0222 22.5304 49.9544C21.8531 49.8528 21.1419 49.7512 20.5322 49.3787C20.329 49.2432 20.1258 49.1416 19.9226 49.04C19.6517 48.9046 19.5162 48.7014 19.4485 48.3965C19.4485 48.2611 19.5501 48.2611 19.6178 48.2949C20.0242 48.532 20.3968 48.803 20.8032 49.0062C21.108 49.1416 21.4467 49.1755 21.7853 49.2432C22.4288 49.4126 23.0723 49.4126 23.7158 49.3787C23.8851 49.3787 24.0883 49.3448 24.2238 49.2771C24.5963 49.1078 24.9689 48.9384 25.3414 48.7352C25.5785 48.5997 25.8494 48.4643 26.0865 48.3627C26.1881 48.3288 26.3913 48.2611 26.4252 48.2949Z" fill="black"/>
<path d="M24.0205 38.5749C24.0544 38.4056 24.0544 38.2701 24.0883 38.1685C24.0205 38.1008 23.9528 38.0669 23.8851 37.9992C23.7157 37.8637 23.5464 37.8637 23.4448 38.0669C23.3432 38.2701 23.3093 38.5072 23.2416 38.7442C23.0384 38.6088 22.8352 38.5072 22.6658 38.3717C22.5304 38.2701 22.4965 38.1008 22.5642 37.9314C22.632 37.6943 22.6997 37.4911 22.7675 37.2541C22.8352 37.017 22.9368 36.7799 23.0045 36.5429C23.0384 36.4074 23.0384 36.2719 22.9029 36.1365C22.8352 36.0687 22.7336 36.001 22.6658 35.8994C22.3949 35.9671 22.3272 36.2042 22.1917 36.3735C22.0901 36.509 22.0224 36.6445 21.9546 36.7799C21.853 36.9831 21.7176 37.1525 21.4466 37.1525C21.3789 37.1525 21.3111 37.1863 21.2434 37.1525C21.1079 37.0509 20.9386 36.9831 20.837 36.8477C20.7354 36.6783 20.8031 36.509 20.9386 36.3397C21.0402 36.2042 21.1757 36.1026 21.3111 36.001C21.6837 35.7639 22.0901 35.5268 22.5304 35.3914C23.0384 35.222 23.5464 35.1882 24.0544 35.1543C24.3931 35.1543 24.7656 35.1882 25.1043 35.2559C25.4091 35.3236 25.68 35.4252 25.951 35.5268C26.0526 35.5607 26.1542 35.5946 26.2219 35.6284C26.5606 35.7639 26.7299 36.0348 26.6622 36.3058C26.5606 36.7799 26.3574 36.9154 25.9171 36.9154C25.6462 36.9154 25.4768 36.7461 25.2398 36.6106C25.2398 36.509 25.2736 36.4074 25.2736 36.3058C25.2736 36.1365 25.0704 35.7978 24.935 35.7639C24.7995 35.6962 24.5624 35.8316 24.4947 36.001C24.427 36.2381 24.427 36.4751 24.5286 36.7122C24.5624 36.7799 24.5963 36.8138 24.6302 36.8815C24.8334 37.2202 24.8334 37.525 24.5963 37.8637C24.427 38.0669 24.2576 38.2701 24.1221 38.4733C24.156 38.541 24.0883 38.541 24.0205 38.5749Z" fill="#F7AEBD"/>
</svg>
