<svg width="24" height="24" viewBox="0 0 24 24" fill="none" xmlns="http://www.w3.org/2000/svg">
<path fill-rule="evenodd" clip-rule="evenodd" d="M2 4C2 3.44772 2.44772 3 3 3C5.95456 3 8.93854 3.08559 11.8948 3.17063L11.9207 3.17137C14.8733 3.2563 17.7978 3.34043 20.6667 3.34043C21.219 3.34043 21.6667 3.78814 21.6667 4.34043C21.6667 4.89271 21.219 5.34043 20.6667 5.34043C17.769 5.34043 14.8203 5.25561 11.8778 5.17096L11.8373 5.1698C8.87624 5.08462 5.92101 5 3 5C2.44772 5 2 4.55228 2 4Z" fill="#B7B7B7"/>
<path fill-rule="evenodd" clip-rule="evenodd" d="M0 11.8296C0 11.2773 0.447715 10.8296 1 10.8296C4.67222 10.8296 8.37136 10.915 12.0485 11.0001L12.0683 11.0005C15.7428 11.0855 19.3951 11.17 23 11.17C23.5523 11.17 24 11.6177 24 12.17C24 12.7223 23.5523 13.17 23 13.17C19.372 13.17 15.7003 13.0851 12.0338 13.0003L12.0023 12.9995C8.32123 12.9144 4.64523 12.8296 1 12.8296C0.447715 12.8296 0 12.3819 0 11.8296Z" fill="#B7B7B7"/>
<path fill-rule="evenodd" clip-rule="evenodd" d="M12.5735 20.6581C9.41691 20.8281 6.2228 20.9999 3 20.9999C2.44772 20.9999 2 20.5522 2 19.9999C2 19.4477 2.44772 18.9999 3 18.9999C6.16019 18.9999 9.30089 18.8314 12.466 18.661L12.4986 18.6592C15.6441 18.4898 18.8144 18.3191 22 18.3191C22.5523 18.3191 23 18.7668 23 19.3191C23 19.8714 22.5523 20.3191 22 20.3191C18.8683 20.3191 15.743 20.4874 12.5797 20.6577L12.5735 20.6581Z" fill="#B7B7B7"/>
</svg>
